<?xml version="1.0" encoding="UTF-8"?>
<svg width="30px" height="19px" viewBox="0 0 30 19" version="1.1" xmlns="http://www.w3.org/2000/svg" xmlns:xlink="http://www.w3.org/1999/xlink">
    <defs></defs>
    <g id="Landing-mobile" stroke="none" stroke-width="1" fill="none" fill-rule="evenodd">
        <g id="main-page" transform="translate(-310.000000, -44.000000)" fill="#FFFFFF">
            <g id="AFS" transform="translate(-361.000000, 0.000000)">
                <g id="donate" transform="translate(658.000000, 33.000000)">
                    <path d="M28.1332176,28.1698556 C26.4870343,28.8106356 24.5991699,29.1148834 22.0246094,29.1148834 C18.8718262,29.1148834 15.5817871,28.4870682 14.1477783,27.3197899 C13.4010327,26.7119415 13.1347268,26.0708382 13.0509874,25.5959446 L13.0509874,25.5959446 C13.0178253,25.4879643 13,25.3736293 13,25.2554654 L13,15.7445346 C13,15.6562142 13.009866,15.5701563 13.0281437,15.4873651 L13.0281437,15.4873651 C13.0094991,15.3781268 13,15.2677007 13,15.15625 C13,12.8608165 17.0294373,11 22,11 C24.9848339,11 27.6302951,11.6710158 29.2676321,12.7042142 C28.493301,13.1204057 27.7853802,13.6422552 27.1636277,14.2502105 C27.1519979,14.2453597 27.1403118,14.2405208 27.1285696,14.235694 C25.8105399,13.6939078 23.9762895,13.375 22.0056694,13.375 C20.0350492,13.375 18.2007988,13.6939078 16.8827691,14.235694 C16.2950801,14.4772681 15.8478167,14.7494035 15.5786385,15.0110042 C15.482467,15.1044685 15.482467,15.2080315 15.5786385,15.3014958 C15.8478167,15.5630965 16.2950801,15.8352319 16.8827691,16.076806 C18.2007988,16.6185922 20.0350492,16.9375 22.0056694,16.9375 C23.2282196,16.9375 24.3982835,16.8147581 25.4251618,16.592204 C25.0140525,17.3829089 24.7152756,18.2401762 24.5496969,19.1433575 C23.7413174,19.2534304 22.8855962,19.3125 22,19.3125 C19.392335,19.3125 17.043694,18.8003514 15.4,17.9819838 L15.4,17.9819838 L15.4,20.4260622 C16.2457139,21.0583183 18.1651213,22.0353258 21.9100586,21.9777069 C22.8871698,21.9626733 23.7304726,21.9044863 24.4567011,21.818919 C24.5483058,22.6393864 24.7489007,23.4273513 25.0438416,24.1683222 C24.1574249,24.2939879 23.1117346,24.3800316 21.9100586,24.3800316 C18.6608425,24.3800316 16.3906927,23.6701738 15.4,23.2859939 L15.4,25.234977 C15.8807028,25.6341733 17.6060031,26.7354622 22.0106934,26.7354622 C23.8057674,26.7354622 25.1822444,26.5342267 26.2196134,26.2660501 C26.7603411,26.989096 27.4055702,27.6309823 28.1332176,28.1698556 L28.1332176,28.1698556 L28.1332176,28.1698556 Z M33.7,27.625 C37.5107648,27.625 40.6,24.5679443 40.6,20.796875 C40.6,17.0258057 37.5107648,13.96875 33.7,13.96875 C29.8892352,13.96875 26.8,17.0258057 26.8,20.796875 C26.8,24.5679443 29.8892352,27.625 33.7,27.625 L33.7,27.625 Z M33.7,30 C28.5637518,30 24.4,25.8796206 24.4,20.796875 C24.4,15.7141294 28.5637518,11.59375 33.7,11.59375 C38.8362482,11.59375 43,15.7141294 43,20.796875 C43,25.8796206 38.8362482,30 33.7,30 L33.7,30 Z M34.288,16.982625 C34.6984021,16.9968751 35.1195978,17.0681244 35.5516,17.196375 C35.9836022,17.3246256 36.3687983,17.5241236 36.7072,17.794875 C36.3543982,18.193877 36.0052017,18.5821856 35.6596,18.9598125 C35.4795991,18.7816866 35.2636013,18.6427505 35.0116,18.543 C34.7595987,18.4432495 34.5184012,18.3898125 34.288,18.3826875 L34.288,20.0926875 C34.5688014,20.1781879 34.8531986,20.2743745 35.1412,20.38125 C35.4292014,20.4881255 35.6919988,20.6306241 35.9296,20.80875 C36.1672012,20.9868759 36.3615992,21.2041862 36.5128,21.4606875 C36.6640008,21.7171888 36.7396,22.0378106 36.7396,22.4225625 C36.7396,22.8144395 36.6694007,23.1546548 36.529,23.4432188 C36.3885993,23.7317827 36.2014012,23.972249 35.9674,24.164625 C35.7333988,24.357001 35.4670015,24.503062 35.1682,24.6028125 C34.8693985,24.702563 34.5616016,24.756 34.2448,24.763125 L34.2448,25.5433125 L33.4456,25.5433125 L33.4456,24.763125 C32.9775977,24.7488749 32.5060024,24.6615946 32.0308,24.5012813 C31.5555976,24.3409679 31.1380018,24.1005016 30.778,23.779875 C30.9652009,23.587499 31.154199,23.3933447 31.345,23.1974063 C31.535801,23.0014678 31.7247991,22.803751 31.912,22.60425 C32.0056005,22.7111255 32.1171994,22.8090933 32.2468,22.8981563 C32.3764006,22.9872192 32.5095993,23.0638122 32.6464,23.1279375 C32.7832007,23.1920628 32.9199993,23.2437186 33.0568,23.2829063 C33.1936007,23.3220939 33.3231994,23.3416875 33.4456,23.3416875 L33.4456,21.471375 C33.1359985,21.3858746 32.8390014,21.289688 32.5546,21.1828125 C32.2701986,21.075937 32.0200011,20.9370009 31.804,20.766 C31.5879989,20.5949991 31.4152006,20.386595 31.2856,20.1407813 C31.1559994,19.8949675 31.0912,19.5939393 31.0912,19.2376875 C31.0912,18.8885608 31.1631993,18.5768451 31.3072,18.3025313 C31.4512007,18.0282174 31.6383988,17.7966572 31.8688,17.6078438 C32.0992012,17.4190303 32.3583986,17.2729693 32.6464,17.1696563 C32.9344014,17.0663432 33.2187986,17.0075626 33.4996,16.9933125 L33.4996,16.255875 L34.288,16.255875 L34.288,16.982625 L34.288,16.982625 Z M33.4996,18.3613125 C33.305199,18.3826876 33.1306008,18.4557181 32.9758,18.5804063 C32.8209992,18.7050944 32.7436,18.8849988 32.7436,19.120125 C32.7436,19.3481261 32.8119993,19.5226869 32.9488,19.6438125 C33.0856007,19.7649381 33.2691988,19.8539997 33.4996,19.911 L33.4996,18.3613125 L33.4996,18.3613125 Z M34.2448,23.352375 C34.4896012,23.3381249 34.6821993,23.2579695 34.8226,23.1119063 C34.9630007,22.965843 35.0332,22.7681262 35.0332,22.51875 C35.0332,22.2693738 34.9594007,22.0823444 34.8118,21.9576563 C34.6641993,21.8329681 34.4752012,21.7350004 34.2448,21.66375 L34.2448,23.352375 L34.2448,23.352375 Z" id="Coins"></path>
                </g>
            </g>
        </g>
    </g>
</svg>