<?xml version="1.0" encoding="UTF-8"?>
<svg width="221px" height="176px" viewBox="0 0 221 176" version="1.1" xmlns="http://www.w3.org/2000/svg" xmlns:xlink="http://www.w3.org/1999/xlink">
    <!-- Generator: Sketch 44.1 (41455) - http://www.bohemiancoding.com/sketch -->
    <title>Sent</title>
    <desc>Created with Sketch.</desc>
    <defs>
        <linearGradient x1="60.9378636%" y1="0%" x2="60.9378633%" y2="163.892925%" id="linearGradient-1">
            <stop stop-color="#C82EC1" offset="0%"></stop>
            <stop stop-color="#2BA7E0" offset="100%"></stop>
        </linearGradient>
    </defs>
    <g id="Form" stroke="none" stroke-width="1" fill="none" fill-rule="evenodd">
        <g id="form-3-end" transform="translate(-402.000000, -372.000000)" fill="url(#linearGradient-1)">
            <g transform="translate(12.000000, 115.000000)" id="Group">
                <g transform="translate(0.000000, 139.000000)">
                    <path d="M502.396193,224.542958 C502.176297,224.542958 501.340691,224.469659 501.128125,224.42568 L393.166407,209.362789 C392.081586,209.208861 391.121372,208.578492 390.549642,207.647598 C389.970582,206.716704 389.845974,205.580574 390.190478,204.539731 C391.399908,200.999402 393.855416,198.082112 397.10988,196.330272 L539.434047,119.718427 C542.270709,118.186483 545.569152,117.666062 548.801627,118.208473 C549.915768,118.39172 550.883311,119.088058 551.425722,120.084921 C551.968132,121.081784 552.012112,122.276553 551.550329,123.310065 L508.267422,220.856031 C507.343858,223.062324 505.020288,224.542958 502.396193,224.542958 Z M608.615598,215.828023 C610.477386,219.287724 610.880529,223.253186 609.751728,227.013411 C608.622927,230.766307 606.101451,233.859514 602.64908,235.721302 L522.496905,278.894261 L577.309705,278.894261 C579.33275,278.894261 580.981972,280.514163 580.981972,282.537208 L580.981972,289.881742 C580.981972,291.912117 579.33275,293.554009 577.309705,293.554009 L416.140431,293.554009 C414.110055,293.554009 412.475493,291.912117 412.475493,289.881742 L412.475493,282.537208 C412.475493,280.514163 414.110055,278.894261 416.140431,278.894261 L425.581309,278.894261 L395.22097,222.527528 C394.561281,221.310769 394.649239,219.822805 395.440866,218.694004 C396.225162,217.557873 397.588519,216.964154 398.959205,217.15473 L500.397335,231.308717 C501.386868,231.491964 502.215144,231.557933 503.02876,231.557933 C508.438207,231.557933 513.451841,228.281479 515.489546,223.399783 L556.346265,131.351223 C556.910665,130.068495 558.164073,129.225559 559.564079,129.17425 C560.905446,129.012993 562.276133,129.863258 562.943151,131.094677 L608.615598,215.828023 Z" id="Sent"></path>
                </g>
            </g>
        </g>
    </g>
</svg>